<?xml version="1.0" standalone="no"?>
<!DOCTYPE svg PUBLIC "-//W3C//DTD SVG 1.1//EN" "http://www.w3.org/Graphics/SVG/1.1/DTD/svg11.dtd" >
<!--
2013-9-30: Created.
-->
<svg>
<metadata>
Created by iconfont
</metadata>
<defs>

<font id="iconfont" horiz-adv-x="1024" >
  <font-face
    font-family="iconfont"
    font-weight="500"
    font-stretch="normal"
    units-per-em="1024"
    ascent="896"
    descent="-128"
  />
    <missing-glyph />
    
    <glyph glyph-name="jinrizuire" unicode="&#58884;" d="M735.850496 245.225472l-20.7104-13.179904c15.331328-19.6352 27.435008-37.655552 36.31104-54.063104l21.249024 15.062016C764.092416 207.839232 751.988736 225.321984 735.850496 245.225472zM684.208128 237.156352l-23.938048-5.110784c7.53152-15.331328 13.986816-33.083392 19.096576-53.525504l25.283584 5.917696C698.732544 203.266048 692.00896 221.018112 684.208128 237.156352zM628.5312 233.391104l-23.938048-4.841472c5.110784-14.524416 9.413632-31.200256 12.910592-50.566144l25.551872 5.917696C638.752768 201.652224 633.911296 218.059776 628.5312 233.391104zM563.97824 240.922624c-9.145344-18.828288-20.1728-34.966528-32.81408-48.41472l20.979712-15.331328c12.64128 15.062016 23.66976 32.81408 33.352704 53.256192L563.97824 240.922624zM536.274944 395.580416l0-24.74496 36.041728 0 0-41.152512c-13.986816-2.958336-28.511232-5.379072-43.035648-7.262208l5.917696-23.938048c12.64128 2.151424 25.014272 4.841472 37.117952 7.53152l0-26.090496c0-6.455296-2.690048-9.952256-8.06912-9.952256-7.262208 0-14.793728 0.806912-22.593536 1.883136l5.917696-24.476672 25.551872 0c16.407552 0 24.74496 8.876032 24.74496 26.358784l0 38.462464c9.682944 2.420736 19.096576 5.110784 28.77952 7.799808l0 24.476672c-9.413632-3.227648-19.096576-5.917696-28.77952-8.60672l0 34.966528L628.5312 370.835456l0 24.74496-30.662656 0 0 32.007168-25.551872 0 0-32.007168L536.274944 395.580416 536.274944 395.580416zM760.864768 247.646208c4.841472 0 8.60672 2.420736 11.834368 7.262208 4.303872 6.724608 7.262208 21.786624 8.60672 45.456384l-19.365888 9.682944c-0.269312-10.220544-0.806912-18.828288-1.883136-26.090496-1.344512-7.262208-2.690048-11.027456-4.03456-11.027456-1.613824 0-3.227648 2.690048-4.841472 7.53152-4.303872 11.027456-6.185984 30.931968-6.185984 59.9808l0 54.063104L690.1248 394.505216l0 33.083392-25.014272 0 0-33.083392L636.60032 394.505216l0-25.014272 28.511232 0c-0.5376-12.910592-1.883136-25.014272-4.03456-36.31104-5.648384 3.765248-11.296768 7.53152-17.214464 10.759168l-13.717504-19.903488c7.799808-4.303872 15.60064-9.413632 23.66976-15.331328-7.799808-19.365888-19.6352-34.966528-35.504128-47.070208l18.828288-16.67584c15.868928 12.372992 28.24192 28.24192 37.117952 47.338496 9.145344-7.53152 18.289664-15.868928 27.435008-25.551872l14.524416 21.786624c-10.489856 10.489856-21.517312 20.1728-33.083392 28.77952 4.03456 15.60064 6.455296 32.81408 6.992896 52.179968l29.855744 0 0-29.048832c0-40.8832 5.648384-67.780608 16.945152-80.960512C743.382016 251.95008 751.181824 247.91552 760.864768 247.646208zM449.128448 235.004928c-9.952256 10.220544-16.945152 21.786624-21.249024 34.159616l40.3456 0C464.190464 256.791552 457.735168 245.494784 449.128448 235.004928zM405.823488 269.164544c4.841472-17.752064 13.986816-34.159616 27.70432-49.221632-10.759168-8.60672-23.66976-15.868928-39.001088-22.324224l13.179904-19.6352c16.407552 6.992896 30.662656 15.60064 43.035648 25.821184 11.834368-9.413632 25.821184-18.021376 42.497024-25.821184l13.179904 21.249024c-15.331328 6.185984-28.511232 13.179904-39.538688 20.979712 11.56608 14.255104 19.6352 30.931968 24.20736 50.297856l0 19.365888L397.48608 289.875968l0-20.7104L405.823488 269.164544 405.823488 269.164544zM323.250176 386.973696l0 13.448192 126.954496 0 0-13.448192L323.250176 386.973696zM450.203648 355.234816 323.250176 355.234816 323.250176 369.48992l126.954496 0 0-14.255104L450.203648 355.234816zM298.773504 418.980864l0-81.498112 175.906816 0 0 81.498112L298.773504 418.980864zM313.83552 287.72352l0 15.868928 47.87712 0 0-15.868928L313.83552 287.72352zM313.83552 253.026304l0 16.407552 47.87712 0 0-16.407552L313.83552 253.026304zM313.83552 216.17664l0 18.558976 47.87712 0 0-14.524416C347.188224 218.597376 331.319296 217.252864 313.83552 216.17664zM267.034624 324.03456l0-20.442112 23.400448 0 0-88.76032-23.131136-1.076224 3.227648-21.517312c36.31104 2.420736 66.704384 5.110784 91.181056 8.06912l0-22.055936 24.476672 0 0 25.283584c5.110784 1.076224 9.952256 1.883136 14.255104 2.690048l0 19.6352-14.255104-2.420736 0 80.1536 119.153664 0L505.342976 324.03456 267.034624 324.03456zM596.793344 626.625536l0 69.394432 121.306112 0 0-69.394432L596.793344 626.625536zM596.793344 526.83776l0 74.773504 121.306112 0 0-74.773504L596.793344 526.83776zM743.651328 720.765952l-172.41088 0 0-238.03904 25.551872 0 0 19.096576 121.306112 0 0-18.828288 25.551872 0L743.651328 720.765952 743.651328 720.765952zM377.043968 730.179584c-31.200256-34.966528-69.932032-64.283648-116.732928-87.684096l13.448192-24.20736c46.531584 24.74496 83.918848 54.063104 112.43008 87.684096 30.931968-36.041728 68.318208-65.09056 112.43008-87.415808l13.448192 23.938048c-44.110848 21.517312-83.111936 50.566144-116.732928 87.684096l-18.290688 0L377.043968 730.179584zM289.897472 599.45984l0-23.938048 161.651712 0c-17.214464-30.931968-47.607808-54.870016-91.450368-72.08448l17.214464-22.324224c52.98688 22.593536 87.953408 55.407616 104.629248 98.712576L481.942528 599.45984 289.897472 599.45984zM363.864064 662.398976l-13.986816-20.442112c21.517312-8.60672 42.497024-20.7104 63.208448-36.31104l13.448192 21.249024C407.706624 640.881664 386.726912 652.716032 363.864064 662.398976zM116.948992 896l790.100992 0 0-975.0784c0-37.103616-28.41088-57.495552-63.690752-45.466624L512-11.565056 180.640768-124.545024c-35.175424-11.993088-63.690752 8.352768-63.690752 45.466624L116.948992 896 116.948992 896z"  horiz-adv-x="1024" />

    
    <glyph glyph-name="zuo" unicode="&#58881;" d="M380.81 383.819l399.418 396.802c25.483 25.323 25.483 66.36 0 91.7-25.519 25.323-66.809 25.323-92.328 0l-443.934-441.030c-13.154-13.083-19.39-30.34-18.96-47.473-0.43-17.132 5.806-34.389 18.96-47.471l443.934-441.029c25.518-25.304 66.808-25.304 92.328 0 25.482 25.34 25.482 66.378 0 91.718l-399.418 396.783z"  horiz-adv-x="1024" />

    
    <glyph glyph-name="duanshipin-" unicode="&#59007;" d="M924.369455 704.302545H641.396364l1.908363 4.119273 62.906182 136.913455a29.649455 29.649455 0 0 1-14.592 39.214545 27.857455 27.857455 0 0 1-11.799273 2.536727c-11.729455 0-22.784-6.865455-27.485091-17.105454l-75.985454-165.678546h-131.025455l-0.791272 1.69891-75.217455 164.002909c-4.677818 10.216727-15.732364 17.082182-27.415273 17.082181-4.189091 0-8.145455-0.861091-11.822545-2.536727a29.370182 29.370182 0 0 1-15.383273-16.593454c-2.746182-7.400727-2.443636-15.453091 0.837818-22.621091l64.674909-141.032728H129.605818a73.728 73.728 0 0 1-73.332363-73.658181v-661.736728a73.611636 73.611636 0 0 1 73.332363-73.704727h794.717091a73.728 73.728 0 0 1 73.378909 73.704727V630.621091a73.565091 73.565091 0 0 1-73.332363 73.681454zM676.887273 276.433455l-220.602182-162.257455a28.765091 28.765091 0 0 0-21.969455-5.422545 29.044364 29.044364 0 0 0-19.246545 11.566545 28.625455 28.625455 0 0 0-3.584 26.624l1.861818 5.096727-1.931636 5.050182a29.416727 29.416727 0 0 0-2.187637 10.286546V432.034909c0 0.977455 0.512 2.792727 0.977455 4.445091l1.652364 6.423273-1.117091 3.816727a28.858182 28.858182 0 0 0 3.770181 24.296727 29.463273 29.463273 0 0 0 24.32 12.683637c6.050909 0 11.915636-1.838545 16.872728-5.282909l220.555636-153.949091c7.796364-5.445818 12.520727-14.382545 12.637091-23.901091 0.069818-9.448727-4.398545-18.478545-12.008727-24.133818z"  horiz-adv-x="1024" />

    
    <glyph glyph-name="home" unicode="&#58886;" d="M164.378947 317.170526v-387.718737c0-24.791579 20.048842-44.948211 44.732632-44.94821h692.870737c24.791579 0 44.840421 20.102737 44.840421 44.94821v400.276211l-396.341895 308.277895-386.155789-320.835369z m488.986948-17.731368v-210.405053c0-22.959158-19.456-41.498947-43.493053-41.498947H501.221053c-23.983158 0-43.493053 18.539789-43.493053 41.498947v210.405053c0 22.959158 19.509895 41.498947 43.493053 41.498947h108.651789c24.037053 0 43.493053-18.539789 43.493053-41.498947zM588.153263 884.682105a39.181474 39.181474 0 0 1-33.68421 6.682948 39.774316 39.774316 0 0 1-40.906106-4.473264L17.138526 485.322105a41.606737 41.606737 0 0 1-7.545263-57.829052l24.68379-32.714106a40.313263 40.313263 0 0 1 57.020631-7.545263l459.075369 371.388632 437.625263-355.43579a39.882105 39.882105 0 0 1 56.427789 7.545263l24.522106 32.336843a41.121684 41.121684 0 0 1-7.329685 57.182315L588.153263 884.682105z"  horiz-adv-x="1077" />

    
    <glyph glyph-name="ziyuan" unicode="&#58966;" d="M767.510742 427.357576L342.937031 877.519434A59.231823 59.231823 0 0 1 299.816264 895.999763 59.942605 59.942605 0 0 1 259.064769 879.888707a59.468751 59.468751 0 0 1-2.369272-83.872262L619.66811 411.957302l21.797311-27.95742-21.797311-26.062003L256.695497-28.016681999999946a59.231823 59.231823 0 1 1 86.241534-81.266062l424.573711 450.161858a58.757969 58.757969 0 0 1 15.874128 43.120768 59.231823 59.231823 0 0 1-15.874128 43.357694z"  horiz-adv-x="1024" />

    
    <glyph glyph-name="pingfen" unicode="&#58883;" d="M574.729481 13.805037a51.617185 51.617185 0 0 1-34.588444 8.722963 41.490963 41.490963 0 0 1-34.588444-8.722963l-242.194963-130.958222c-43.235556-26.206815-69.176889 0-60.681482 43.652741l43.235556 270.639407a99.669333 99.669333 0 0 1-25.941334 69.859556L21.200593 459.055407c-34.588444 34.929778-25.941333 69.82163 25.941333 69.82163l268.136296 43.652741a80.933926 80.933926 0 0 1 60.681482 43.652741L496.82963 860.615111a65.687704 65.687704 0 0 0 34.664296 34.929778 44.183704 44.183704 0 0 0 34.588444-34.929778l121.097482-244.432592a80.933926 80.933926 0 0 1 60.681481-43.652741l267.946667-43.652741c51.882667-8.722963 60.681481-43.652741 25.941333-69.859556l-198.921481-192.056888a116.773926 116.773926 0 0 1-25.941333-69.859556l43.235555-270.639407c8.647111-43.652741-17.294222-69.859556-60.681481-43.652741l-224.862815 130.958222z"  horiz-adv-x="1062" />

    
    <glyph glyph-name="jinrizuire1" unicode="&#58885;" d="M116.852588 896h789.782975v-974.560456c0-36.853126-28.151694-57.327086-63.469274-45.554559l-331.166289 112.606775-331.166289-113.118624c-35.31758-11.772527-63.469273 8.189584-63.469274 45.554559L116.852588 896zM332.341008 421.004148H267.336188c-6.654037 0-11.772527-5.630339-11.772526-11.772527v-72.170706c0-11.260678-9.213282-20.473959-20.47396-20.473959h-7.677734c-11.260678 0-20.473959 9.213282-20.473959 20.473959V528.492433c0 11.260678 9.213282 20.473959 20.473959 20.473959h7.677734c11.260678 0 20.473959-9.213282 20.47396-20.473959v-58.350783c0-4.606641 4.094792-8.701433 8.701432-8.701433h67.564065c8.189584 0 14.84362 6.654037 14.843621 14.84362V528.492433c0 11.260678 9.213282 20.473959 20.473959 20.473959h7.677735c11.260678 0 20.473959-9.213282 20.473959-20.473959v-191.943367c0-11.260678-9.213282-20.473959-20.473959-20.473959h-7.677735c-11.260678 0-20.473959 9.213282-20.473959 20.473959V407.184225c-0.511849 7.677735-6.654037 13.819922-14.331772 13.819923zM432.151559 432.776674c0 33.270184 7.165886 59.886331 22.009506 80.36029 11.260678 15.867318 27.127996 27.639845 47.090106 34.80573 13.819922 5.11849 28.151694 7.677735 42.995315 7.677735 14.84362 0 28.663543-2.559245 42.483465-7.677735 19.96211-7.165886 35.829429-18.938412 47.090106-34.80573 14.84362-20.473959 22.521355-47.601955 22.521355-80.36029 0-33.270184-7.165886-59.886331-22.009506-80.36029-11.260678-15.867318-27.127996-27.639845-47.090106-34.80573-13.819922-5.11849-28.151694-7.677735-42.995314-7.677735-14.84362 0-28.663543 2.559245-42.483466 7.677735-19.96211 7.165886-35.829429 18.938412-47.090106 34.80573-14.84362 20.473959-22.521355 47.090106-22.521355 80.36029z m49.137502 0c0-29.175392 7.165886-51.184898 22.009506-65.00482 11.260678-10.748829 25.0806-16.379167 41.459768-16.379168 16.379167 0 30.19909 5.630339 41.459767 16.379168 14.331771 13.819922 22.009506 35.829429 22.009506 65.00482 0 29.175392-7.165886 51.184898-22.009506 65.00482-11.260678 10.748829-25.0806 16.379167-41.459767 16.379168-16.379167 0-30.19909-5.630339-41.459768-16.379168-14.84362-13.819922-22.009506-35.829429-22.009506-65.00482zM794.540636 501.876286v-165.32722c0-11.260678-9.213282-20.473959-20.473959-20.473959h-7.677734c-11.260678 0-20.473959 9.213282-20.47396 20.473959V501.876286c0 3.071094-2.559245 5.630339-5.630338 5.630339H696.265632c-11.260678 0-20.473959 9.213282-20.473959 20.473959s9.213282 20.473959 20.473959 20.473959h148.436204c11.260678 0 20.473959-9.213282 20.473959-20.473959s-9.213282-20.473959-20.473959-20.473959h-44.019012c-3.582943 0.511849-6.142188-2.047396-6.142188-5.630339z"  horiz-adv-x="1024" />

    
    <glyph glyph-name="jiazai" unicode="&#58880;" d="M512 689.5203706c17.18552085 0 28.64253474-13.36651621 28.64253474-28.64253474v-93.56561349c0-17.18552085-13.36651621-30.55203706-28.64253474-30.55203706s-28.64253474 13.36651621-28.64253474 28.64253473v95.47511582C481.44796294 676.15385438 494.81447915 689.5203706 512 689.5203706zM666.66968762 643.69231501c13.36651621-7.63800925 19.09502317-26.73303243 11.4570139-40.09954864l-47.73755791-82.10859961c-7.63800925-13.36651621-26.73303243-19.09502317-40.09954865-11.45701388s-19.09502317 26.73303243-11.45701389 40.09954864L626.57013898 634.14480343c9.54751158 13.36651621 26.73303243 17.18552085 40.09954864 9.54751158zM765.96380806 532.94118067c7.63800925-13.36651621 3.81900464-32.46153938-11.4570139-40.09954865l-82.1085996-47.7375579c-13.36651621-7.63800925-32.46153938-3.81900464-40.09954864 11.4570139s-3.81900464 32.46153938 11.4570139 40.09954864l82.1085996 47.7375579c13.36651621 7.63800925 32.46153938 3.81900464 40.09954865-11.45701389zM811.79186366 389.72850695c0-17.18552085-13.36651621-28.64253474-28.64253476-28.64253475h-93.56561348c-17.18552085 0-28.64253474 13.36651621-28.64253475 28.64253475s13.36651621 28.64253474 28.64253475 28.64253475h93.56561348c15.27601854 0 28.64253474-11.45701389 28.64253476-28.64253475zM765.96380806 235.05881933c-7.63800925-13.36651621-26.73303243-19.09502317-40.09954863-11.45701389l-82.10859961 47.7375579c-13.36651621 7.63800925-19.09502317 26.73303243-11.4570139 40.09954864s26.73303243 19.09502317 40.09954864 11.4570139l82.1085996-47.7375579c15.27601854-9.54751158 19.09502317-26.73303243 11.45701391-40.09954865zM666.66968762 112.8506711c-13.36651621-7.63800925-32.46153938-3.81900464-40.09954864 11.45701389l-47.73755791 82.10859959c-7.63800925 13.36651621-3.81900464 32.46153938 11.45701389 40.09954865s32.46153938 3.81900464 40.09954865-11.4570139l47.73755791-82.1085996c7.63800925-15.27601854 3.81900464-32.46153938-11.4570139-40.09954863zM512 78.47962940000002c-17.18552085 0-28.64253474 13.36651621-28.64253474 28.64253474v93.56561349c0 17.18552085 13.36651621 28.64253474 28.64253474 28.64253475s28.64253474-13.36651621 28.64253474-28.64253475v-93.56561349c0-15.27601854-13.36651621-28.64253474-28.64253474-28.64253474zM355.42081006 112.8506711c-13.36651621 7.63800925-19.09502317 26.73303243-11.45701389 40.09954863l47.73755791 82.1085996c7.63800925 13.36651621 26.73303243 19.09502317 40.09954864 11.4570139 13.36651621-7.63800925 19.09502317-26.73303243 11.4570139-40.09954865l-47.73755791-82.10859959c-7.63800925-15.27601854-24.82353011-21.00452548-40.09954865-11.45701389zM246.57917804 235.05881933c-7.63800925 13.36651621-3.81900464 32.46153938 11.45701389 40.09954865L340.14479153 322.89592588000005c13.36651621 7.63800925 32.46153938 3.81900464 40.09954865-11.4570139s3.81900464-32.46153938-11.45701391-40.09954864l-82.1085996-47.7375579c-15.27601854-7.63800925-32.46153938-3.81900464-40.09954863 11.45701389zM212.20813634 389.72850695c0 17.18552085 13.36651621 28.64253474 28.64253476 28.64253475h93.56561348c15.27601854 0 28.64253474-13.36651621 28.64253475-28.64253475s-13.36651621-28.64253474-28.64253475-28.64253475H240.8506711c-15.27601854 0-28.64253474 13.36651621-28.64253476 28.64253475zM246.57917804 532.94118067c7.63800925 13.36651621 26.73303243 19.09502317 40.09954863 11.45701389l82.1085996-47.7375579c13.36651621-7.63800925 19.09502317-26.73303243 11.45701391-40.09954864-7.63800925-13.36651621-26.73303243-19.09502317-40.09954865-11.4570139l-82.1085996 47.7375579c-15.27601854 9.54751158-21.00452548 26.73303243-11.45701389 40.09954865zM355.42081006 643.69231501c15.27601854 7.63800925 32.46153938 3.81900464 40.09954865-9.54751158l47.73755791-82.1085996c7.63800925-13.36651621 3.81900464-32.46153938-11.4570139-40.09954865s-32.46153938-3.81900464-40.09954864 11.4570139L345.87329848 603.5927663699999c-9.54751158 15.27601854-3.81900464 32.46153938 9.54751158 40.09954864z"  horiz-adv-x="1024" />

    
    <glyph glyph-name="lajixiang" unicode="&#58970;" d="M628.36 11.64a46.55 46.55 0 0 1 46.55 46.55V616.73a46.55 46.55 0 1 1-93.09 0v-558.55a46.54 46.54 0 0 1 46.54-46.54zM977.45 802.91H581.82V849.45A46.55 46.55 0 0 1 535.27 896h-46.54a46.54 46.54 0 0 1-46.55-46.55v-46.54H46.55a46.55 46.55 0 0 1 0-93.09h69.82v-744.73a93.09 93.09 0 0 1 93.08-93.09h605.1a93.09 93.09 0 0 1 93.09 93.09V709.82h69.82a46.55 46.55 0 0 1 0 93.09z m-162.9-791.27A46.55 46.55 0 0 0 768-34.91H256a46.55 46.55 0 0 0-46.55 46.55V709.82h605.1zM395.64 11.64a46.55 46.55 0 0 1 46.55 46.55V616.73a46.55 46.55 0 1 1-93.09 0v-558.55a46.54 46.54 0 0 1 46.54-46.54z"  horiz-adv-x="1024" />

    
    <glyph glyph-name="duanshipin" unicode="&#58890;" d="M897.536 700.928H634.88l57.856 125.952c8.192 18.432 0 39.936-17.92 48.128-4.608 2.048-9.728 3.072-14.336 3.072-14.336 0-28.16-8.192-33.792-20.992l-71.68-156.16H437.76l-71.68 156.16c-5.632 12.8-19.456 20.992-33.792 20.992-5.12 0-10.24-1.024-14.848-3.072-8.704-4.096-15.872-11.264-18.944-20.48-3.584-9.216-3.072-18.944 1.024-27.648l57.856-125.952H126.464c-43.52 0-78.848-35.84-78.848-79.36V-20.480000000000018c0-43.52 35.328-78.848 78.848-79.36h771.072c43.52 0 78.848 35.84 78.848 79.36V621.568c0 43.52-35.328 78.848-78.848 79.36z m6.656-728.064H120.32V627.712h783.36l0.512-654.848zM437.248 81.91999999999996c-7.68 0-15.36 1.536-22.528 5.12-17.92 8.704-29.696 26.624-29.696 47.104V439.296c0 19.968 11.264 37.888 29.696 47.104 17.92 8.704 39.424 6.144 54.784-6.144l191.488-152.576c12.288-9.728 19.456-24.576 19.456-40.448 0-15.872-7.168-30.72-19.456-40.448l-191.488-152.576c-9.728-8.192-20.992-12.288-32.256-12.288z m5.12 346.624v-283.648l178.176 141.824-178.176 141.824z"  horiz-adv-x="1024" />

    
    <glyph glyph-name="zhongbiao1" unicode="&#58944;" d="M506.5-24.9c-225.8 0-409.4 183.7-409.4 409.4s183.7 409.4 409.4 409.4 409.4-183.7 409.4-409.4-183.6-409.4-409.4-409.4z m0 746c-185.6 0-336.6-151-336.6-336.6s151-336.6 336.6-336.6 336.6 151 336.6 336.6-151 336.6-336.6 336.6zM716.1 298.2h-265v265c0 20.1 16.3 36.4 36.4 36.4 20.1 0 36.4-16.3 36.4-36.4v-192.3h192.3c20.1 0 36.4-16.3 36.4-36.4s-16.4-36.3-36.5-36.3z"  horiz-adv-x="1024" />

    
    <glyph glyph-name="jiazai1" unicode="&#59058;" d="M511.7-64.4c-247.2 0-448.2 201.1-448.2 448.2S264.5 832 511.7 832c45.3 0 90-6.7 132.8-20 27.8-8.6 43.4-38.2 34.8-66-8.6-27.8-38.2-43.4-66-34.8-32.8 10.1-66.9 15.3-101.6 15.3-189 0-342.8-153.8-342.8-342.8S322.7 41 511.7 41s342.8 153.8 342.8 342.8c0 23.1-2.3 46.2-6.8 68.5-5.8 28.5 12.6 56.4 41.2 62.2 28.4 6 56.3-12.6 62.2-41.2 5.9-29.2 8.9-59.3 8.9-89.4-0.1-247.3-201.2-448.3-448.3-448.3z"  horiz-adv-x="1024" />

    
    <glyph glyph-name="xingqiu" unicode="&#58882;" d="M987.504 495.184c-7.527 39.879-37.67 65.878-61.633 80.666-5.856 3.615-16.786 8.043-28.811 12.442-21.61 7.906-44.335-8.527-43.718-31.53l0.019-0.673c0.314-11.846 6.038-25.44 17.607-28.012 19.185-4.265 53.505-29.99 56.203-44.28 4.917-26.052-18.006-59.68-62.386-93.087-0.836 45.215-10.11 89.101-27.638 130.54-17.76 41.99-43.177 79.693-75.548 112.063s-70.075 57.79-112.064 75.549c-43.487 18.394-89.665 27.72-137.25 27.72s-93.762-9.326-137.25-27.72c-41.989-17.76-79.692-43.179-112.063-75.549s-57.789-70.074-75.548-112.062c-18.394-43.489-27.72-89.666-27.72-137.251 0-40.616 6.819-80.2 20.246-117.969-47.982 14.924-77.93 36.671-82.55 61.15-3.294 17.447 5.902 38.291 25.66 60.19a30.336 30.336 0 0 1 7.803 19.561l0.02 0.812c0.703 28.276-34.09 42.067-53.05 21.077-4.623-5.12-8.884-10.27-12.775-15.445-16.924-22.506-35.517-57.704-27.99-97.581 7.526-39.878 37.67-65.877 61.632-80.666 29.514-18.215 68.603-31.886 116.181-40.631 13.727-21.513 29.798-41.514 48.092-59.81 32.37-32.371 70.074-57.79 112.063-75.549 43.488-18.394 89.666-27.72 137.25-27.72s93.763 9.326 137.25 27.72c41.989 17.76 79.692 43.178 112.064 75.549s57.789 70.075 75.548 112.063a349.8 349.8 0 0 1 20.407 65.459 567.144 567.144 0 0 1 8.518 5.167c41.148 25.5 72.587 52.491 93.441 80.226 16.923 22.505 35.516 57.704 27.99 97.581z m-681.117 94.714c54.998 54.998 128.12 85.286 205.897 85.286s150.901-30.289 205.898-85.286c54.997-54.997 85.286-128.12 85.286-205.897a296.12 296.12 0 0 0-1.838-32.806C730.282 313.32 638.602 282.749 539 263.95c-103.49-19.533-203.652-24.116-285.688-13.339-21.046 40.75-32.211 86.208-32.211 133.39 0 77.777 30.288 150.9 85.286 205.897z m411.795-411.795c-54.997-54.998-128.12-85.287-205.898-85.287s-150.9 30.289-205.897 85.287a300.018 300.018 0 0 0-6.45 6.678 857.39 857.39 0 0 1 46.125-1.22c64.176 0 133.699 6.724 204.325 20.055 84.32 15.914 163.715 40.017 231.456 69.878-14.452-35.258-35.905-67.635-63.661-95.391zM700.204 395.256a29.875 29.875 0 1 1 59.751 0 29.875 29.875 0 1 1-59.75 0zM608.642 433.155a14.937 14.937 0 1 1 29.874 0 14.937 14.937 0 1 1-29.874 0z"  horiz-adv-x="1024" />

    
    <glyph glyph-name="fenxiang" unicode="&#59150;" d="M873.411765-118.573176H150.588235a120.470588 120.470588 0 0 0-120.470588 120.470588v662.588235a120.470588 120.470588 0 0 0 120.470588 120.470588h271.058824a30.117647 30.117647 0 0 0 0-60.235294H150.588235a60.235294 60.235294 0 0 1-60.235294-60.235294v-662.588235a60.235294 60.235294 0 0 1 60.235294-60.235294h722.82353a60.235294 60.235294 0 0 1 60.235294 60.235294v301.17647a30.117647 30.117647 0 0 0 60.235294 0v-301.17647a120.470588 120.470588 0 0 0-120.470588-120.470588z m119.657411 812.845176l-41.59247-42.164706-0.512 0.512-148.660706-149.684706-41.592471 42.164706 118.241883 119.085177c-1.867294 0-3.674353 0.271059-5.541647 0.271058a331.294118 331.294118 0 0 1-331.294118-331.294117v-120.470588a30.117647 30.117647 0 0 0-30.117647-30.117648 30.117647 30.117647 0 0 0-30.117647 30.117648v120.470588a391.529412 391.529412 0 0 0 391.529412 391.529412c2.108235 0 4.126118-0.240941 6.204235-0.301177l-118.934588 119.747765 41.59247 42.164706 148.690824-149.714824 0.542118 0.542118 41.59247-42.164706-0.361412-0.39153z"  horiz-adv-x="1024" />

    
    <glyph glyph-name="zhongbiao" unicode="&#59005;" d="M512 896C229.205333 896 0 666.794667 0 384s229.205333-512 512-512 512 229.205333 512 512S794.794667 896 512 896z m311.082667-823.082667a437.717333 437.717333 0 0 0-139.904-94.293333c-54.186667-23.04-111.786667-34.602667-171.178667-34.602667-59.392 0-116.992 11.562667-171.221333 34.474667a440.448 440.448 0 0 0-139.861334 94.293333 437.717333 437.717333 0 0 0-94.293333 139.946667A436.608 436.608 0 0 0 71.936 384c0 59.392 11.605333 116.992 34.56 171.221333a440.448 440.448 0 0 0 94.293333 139.861334 437.717333 437.717333 0 0 0 139.861334 94.293333c54.314667 23.04 111.914667 34.645333 171.306666 34.645333 59.392 0 116.992-11.605333 171.178667-34.56 52.437333-22.186667 99.413333-53.845333 139.946667-94.293333 40.362667-40.362667 72.192-87.466667 94.293333-139.861333 22.997333-54.314667 34.56-111.914667 34.56-171.306667a437.461333 437.461333 0 0 0-128.853333-311.082667z m-90.069334 319.104h-185.002666V631.936a35.968 35.968 0 1 1-72.021334 0v-239.957333c0-39.808 32.213333-72.021333 72.021334-72.021334h185.002666a35.968 35.968 0 1 1 0 72.021334z"  horiz-adv-x="1024" />

    
    <glyph glyph-name="chaxun" unicode="&#58974;" d="M950.6-9.4L798.9 142.3c56.9 70.6 91 160.5 91 258.3C890 628 705.6 812.4 478.2 812.4S66.4 628 66.4 400.6s184.4-411.8 411.8-411.8c106.6 0 203.7 40.5 276.9 107l150.4-150.4c6.2-6.2 14.4-9.4 22.6-9.4s16.4 3.1 22.6 9.4c12.4 12.5 12.4 32.7-0.1 45.2z m-337.1 89.5c-42.8-18.1-88.4-27.3-135.4-27.3s-92.5 9.2-135.4 27.3c-41.4 17.5-78.6 42.6-110.6 74.6-32 32-57 69.2-74.6 110.6-18.1 42.8-27.3 88.4-27.3 135.4s9.2 92.5 27.3 135.4c17.5 41.4 42.6 78.6 74.6 110.6 32 32 69.2 57 110.6 74.6 42.8 18.1 88.4 27.3 135.4 27.3s92.5-9.2 135.4-27.3c41.4-17.5 78.6-42.6 110.6-74.6 32-32 57-69.2 74.6-110.6 18.1-42.8 27.3-88.4 27.3-135.4s-9.2-92.5-27.3-135.4c-17.5-41.4-42.6-78.6-74.6-110.6-32-32-69.2-57.1-110.6-74.6z"  horiz-adv-x="1024" />

    
    <glyph glyph-name="classify-on" unicode="&#58888;" d="M315.1 896H157.5C70.9 896 0 825.1 0 738.5V581c0-86.6 70.9-157.5 157.5-157.5H315c86.6 0 157.5 70.9 157.5 157.5V738.5C472.6 825.1 401.7 896 315.1 896z m551.4 0H708.9c-86.6 0-157.5-70.9-157.5-157.5V581c0-86.6 70.9-157.5 157.5-157.5h157.5c86.6 0 157.5 70.9 157.5 157.5V738.5C1024 825.1 953.1 896 866.5 896zM315.1 344.6H157.5C70.9 344.6 0 273.70000000000005 0 187.10000000000002v-157.5C0-57.10000000000002 70.9-128 157.5-128H315c86.6 0 157.5 70.9 157.5 157.5V187.10000000000002c0.1 86.6-70.8 157.5-157.4 157.5z m551.4 0H708.9c-86.6 0-157.5-70.9-157.5-157.5v-157.5c0-86.6 70.9-157.5 157.5-157.5h157.5c86.6 0 157.5 70.9 157.5 157.5V187.10000000000002c0.1 86.6-70.8 157.5-157.4 157.5z"  horiz-adv-x="1024" />

    
    <glyph glyph-name="remen" unicode="&#58889;" d="M963.199759 732.338985V759.628578H137.599966v-27.289593h-110.079973a27.647993 27.647993 0 0 0-19.455995 7.987198A27.135993 27.135993 0 0 0 0 759.628578V868.735751A27.391993 27.391993 0 0 0 27.519993 895.999744h1045.759739c7.295998 0 14.310396-2.867199 19.455995-7.987198 5.171199-5.119999 8.063998-12.031997 8.063998-19.276795v-109.107173c0-7.244798-2.892799-14.182396-8.063998-19.302395a27.647993 27.647993 0 0 0-19.455995-7.987198h-110.079973z m-825.599793 0h825.599793V-73.472014c0-18.764795-9.727998-36.223991-25.804793-46.182388a55.475186 55.475186 0 0 0-53.171187-2.918399L574.335856 25.855962a55.475186 55.475186 0 0 1-47.871988 0L216.575946-122.572801a55.475186 55.475186 0 0 0-53.171187 2.918399 54.425586 54.425586 0 0 0-25.804793 46.182388V732.338985zM537.599866 275.609499a27.750393 27.750393 0 0 0 25.599993 0l83.455979-43.443189c9.241598-4.838399 20.479995-4.019199 28.927993 2.073599 8.473598 6.118398 12.723197 16.435196 10.956797 26.675194l-15.897596 92.057577a27.135993 27.135993 0 0 0 7.884798 24.140794l67.507183 65.177583c7.526398 7.244798 10.239997 18.099195 6.988799 28.006393a27.443193 27.443193 0 0 1-22.271995 18.559996l-93.260776 13.414396a27.494393 27.494393 0 0 0-20.735995 14.924797l-41.67679 83.763179a27.545593 27.545593 0 0 1-24.678394 15.206396c-10.495997 0-20.044795-5.887999-24.678393-15.206396l-41.70239-83.763179c-4.019199-8.063998-11.775997-13.644797-20.735995-14.924797l-93.286376-13.414396c-10.367997-1.5104-18.969595-8.703998-22.220795-18.585596-3.225599-9.855998-0.512-20.710395 6.988798-27.955193l67.507183-65.177583c6.476798-6.297598 9.446398-15.334396 7.884798-24.166394l-15.923196-92.057577c-1.792-10.239997 2.483199-20.582395 10.956798-26.675194 8.447998-6.118398 19.711995-6.911998 28.979192-2.073599L537.599866 275.609499z"  horiz-adv-x="1100" />

    
    <glyph glyph-name="hot" unicode="&#58923;" d="M664.425412-75.655529a369.784471 369.784471 0 0 0-159.533177-35.990589C291.960471-111.646118 120.470588 68.035765 120.470588 291.056941 120.470588 384 158.900706 495.525647 238.742588 538.895059c0 0 14.787765-151.792941 88.726588-216.847059 8.854588 102.219294-59.151059 439.898353 236.544 557.598118 0-188.958118-2.951529-319.066353 88.726589-433.694118-8.884706 68.156235 14.757647 176.579765 144.865882 216.847059 0-179.681882 91.678118-238.531765 91.678118-371.742118 0-122.036706-51.350588-231.092706-132.728471-304.820706a227.599059 227.599059 0 0 0-92.129882-61.891764z"  horiz-adv-x="1024" />

    
    <glyph glyph-name="pingfen1" unicode="&#59014;" d="M512 787.2l108.8-236.8 19.2-32 32-6.4 256-38.4-185.6-192-25.6-25.6 6.4-32 44.8-268.8-224 121.6-32 25.6-32-19.2L256-38.4l44.8 268.8 6.4 32-25.6 19.2-185.6 192 256 38.4 32 6.4 12.8 32L512 787.2M512 896c-12.8 0-25.6-6.4-25.6-19.2L345.6 576l-320-44.8c-12.8 0-19.2-12.8-25.6-25.6 0-12.8 0-25.6 12.8-32l230.4-230.4-51.2-326.4c0-12.8 0-25.6 12.8-32 0-12.8 6.4-12.8 12.8-12.8s12.8 0 12.8 6.4L512 32l281.6-153.6c6.4 0 12.8-6.4 12.8-6.4 6.4 0 12.8 0 19.2 6.4 12.8 6.4 12.8 19.2 12.8 32l-51.2 326.4 230.4 230.4c6.4 12.8 6.4 25.6 6.4 38.4-6.4 12.8-12.8 19.2-25.6 25.6L684.8 576 544 876.8C537.6 889.6 524.8 896 512 896z"  horiz-adv-x="1024" />

    
    <glyph glyph-name="leimupinleifenleileibie2" unicode="&#58887;" d="M320 832L192 832C121.6 832 64 774.4 64 704l0-128c0-70.4 57.6-128 128-128l128 0c70.4 0 128 57.6 128 128L448 704C448 774.4 390.4 832 320 832zM768 832l-128 0C569.6 832 512 774.4 512 704l0-128c0-70.4 57.6-128 128-128l128 0c70.4 0 128 57.6 128 128L896 704C896 774.4 838.4 832 768 832zM320 384L192 384c-70.4 0-128-57.6-128-128l0-128c0-70.4 57.6-128 128-128l128 0c70.4 0 128 57.6 128 128l0 128C448 326.4 390.4 384 320 384zM768 384l-128 0c-70.4 0-128-57.6-128-128l0-128c0-70.4 57.6-128 128-128l128 0c70.4 0 128 57.6 128 128l0 128C896 326.4 838.4 384 768 384z"  horiz-adv-x="1024" />

    


  </font>
</defs>
</svg>
